<svg width="24" height="24" viewBox="0 0 24 24" fill="none" xmlns="http://www.w3.org/2000/svg">
<g clip-path="url(#clip0_5_1648)">
<path d="M5.14276 18.0286H4.22847C3.21858 18.0286 2.3999 17.2099 2.3999 16.2V7.97143C2.3999 6.96154 3.21858 6.14286 4.22847 6.14286H12.457C13.4669 6.14286 14.2856 6.96154 14.2856 7.97143V16.2C14.2856 17.2099 13.4669 18.0286 12.457 18.0286H11.5428M15.657 18.0286H15.1999C14.695 18.0286 14.2856 17.6192 14.2856 17.1143V9.34286C14.2856 8.83791 14.695 8.42857 15.1999 8.42857H17.5033C17.7811 8.42857 18.0438 8.55482 18.2173 8.77171L21.3995 12.7496C21.5292 12.9117 21.5999 13.1131 21.5999 13.3207V17.1143C21.5999 17.6192 21.1906 18.0286 20.6856 18.0286M10.6285 17.5714C10.6285 18.8338 9.60512 19.8571 8.34276 19.8571C7.08039 19.8571 6.05704 18.8338 6.05704 17.5714C6.05704 16.3091 7.08039 15.2857 8.34276 15.2857C9.60512 15.2857 10.6285 16.3091 10.6285 17.5714ZM20.2285 17.5714C20.2285 18.8338 19.2051 19.8571 17.9428 19.8571C16.6804 19.8571 15.657 18.8338 15.657 17.5714C15.657 16.3091 16.6804 15.2857 17.9428 15.2857C19.2051 15.2857 20.2285 16.3091 20.2285 17.5714Z" stroke="#B4E0A0" stroke-width="2" stroke-linecap="round"/>
</g>
<defs>
<clipPath id="clip0_5_1648">
<rect width="24" height="24" fill="white"/>
</clipPath>
</defs>
</svg>
