<svg width="24" height="24" viewBox="0 0 24 24" fill="none" xmlns="http://www.w3.org/2000/svg">
<g clip-path="url(#clip0_2_1107)">
<g clip-path="url(#clip1_2_1107)">
<path d="M12.1744 22.2983V8.33468M10.5495 7.49699C10.7223 7.53578 10.9045 7.48824 11.0289 7.36378C11.1534 7.23932 11.2009 7.05708 11.1622 6.88428C11.007 6.2505 10.4355 4.12826 9.84861 3.54139C9.11745 2.81023 7.92745 2.80719 7.1999 3.53473C6.47241 4.26222 6.47535 5.45222 7.20656 6.18343C7.80303 6.7799 9.91569 7.34185 10.5495 7.49699ZM12.324 6.88423C12.2852 7.0571 12.3328 7.23927 12.4572 7.36373C12.5817 7.48819 12.7639 7.53566 12.9367 7.49694C13.5705 7.34179 15.6928 6.77025 16.2796 6.18338C17.0108 5.45222 17.0138 4.26222 16.2863 3.53468C15.5588 2.80719 14.3688 2.81013 13.6376 3.54134C13.0411 4.13781 12.4792 6.25047 12.324 6.88423ZM3.09808 13.222H20.9017C21.2873 13.222 21.5999 12.9094 21.5999 12.5238V9.03286C21.5999 8.64727 21.2873 8.33468 20.9017 8.33468H3.09808C2.71249 8.33468 2.3999 8.64727 2.3999 9.03286V12.5238C2.3999 12.9094 2.71249 13.222 3.09808 13.222ZM19.8544 13.222V21.6001C19.8544 21.9857 19.5419 22.2983 19.1563 22.2983H4.84354C4.45794 22.2983 4.14536 21.9857 4.14536 21.6001V13.222H19.8544Z" stroke="#B4E0A0" stroke-width="2" stroke-linecap="round" stroke-linejoin="round"/>
</g>
</g>
<defs>
<clipPath id="clip0_2_1107">
<rect width="24" height="24" fill="white"/>
</clipPath>
<clipPath id="clip1_2_1107">
<rect width="24" height="24" fill="white"/>
</clipPath>
</defs>
</svg>
