<svg width="24" height="24" viewBox="0 0 24 24" fill="none" xmlns="http://www.w3.org/2000/svg">
<g clip-path="url(#clip0_2_1099)">
<path d="M8.7999 22.2446V14.941C8.7999 14.2687 9.37298 13.7237 10.0799 13.7237H13.9199C14.6268 13.7237 15.1999 14.2687 15.1999 14.941V22.2446M11.2581 3.26989L2.93811 8.8964C2.60045 9.12475 2.3999 9.4944 2.3999 9.88843V20.4187C2.3999 21.4271 3.25952 22.2446 4.3199 22.2446H19.6799C20.7403 22.2446 21.5999 21.4271 21.5999 20.4187V9.88843C21.5999 9.4944 21.3994 9.12475 21.0617 8.8964L12.7417 3.26989C12.2976 2.96956 11.7022 2.96956 11.2581 3.26989Z" stroke="#285A43" stroke-width="2" stroke-linecap="round"/>
</g>
<defs>
<clipPath id="clip0_2_1099">
<rect width="24" height="24" fill="white"/>
</clipPath>
</defs>
</svg>
