<svg width="24" height="24" viewBox="0 0 24 24" fill="none" xmlns="http://www.w3.org/2000/svg">
<g clip-path="url(#clip0_2_1112)">
<path d="M8.4668 13.5271L7.82036 12.7641L7.82034 12.7641L8.4668 13.5271ZM8.51961 13.4765L7.80712 12.7748L7.80634 12.7756L8.51961 13.4765ZM6.29789 15.3648L5.65144 14.6019L5.65143 14.6019L6.29789 15.3648ZM6.17908 15.4899L6.99989 16.0611L6.99989 16.0611L6.17908 15.4899ZM17.6924 13.6039L16.9999 14.3253V14.3253L17.6924 13.6039ZM15.8413 11.8268L15.1488 12.5482L15.1488 12.5482L15.8413 11.8268ZM15.1539 11.822L14.4716 11.0909L14.469 11.0933L15.1539 11.822ZM11.7252 15.0445L12.4075 15.7755L12.41 15.7732L11.7252 15.0445ZM11.0272 15.0292L10.3112 15.7274L10.3126 15.7288L11.0272 15.0292ZM11.0182 15.02L10.3015 15.7174L10.3022 15.7181L11.0182 15.02ZM10.9692 14.9724L11.6239 14.2166L11.6239 14.2166L10.9692 14.9724ZM9.29885 13.5257L9.95356 12.7698L9.95356 12.7698L9.29885 13.5257ZM9.24966 13.4779L9.96654 12.7807L9.96587 12.78L9.24966 13.4779ZM9.24085 13.4688L9.95707 12.771L9.95571 12.7696L9.24085 13.4688ZM8.52909 13.4669L7.81803 12.7638L7.81661 12.7652L8.52909 13.4669ZM16.3194 7.24446V6.24446C15.7671 6.24446 15.3194 6.69217 15.3194 7.24446H16.3194ZM16.6626 7.24446H17.6626C17.6626 6.69217 17.2149 6.24446 16.6626 6.24446V7.24446ZM16.6626 7.53508V8.53508C17.2149 8.53508 17.6626 8.08737 17.6626 7.53508H16.6626ZM16.3194 7.53508H15.3194C15.3194 8.08737 15.7671 8.53508 16.3194 8.53508V7.53508ZM1.3999 6.64465V18.6447H3.3999V6.64465H1.3999ZM5.9999 23.2447H17.9999V21.2447H5.9999V23.2447ZM22.5999 18.6447V6.64465H20.5999V18.6447H22.5999ZM17.9999 2.04465H5.9999V4.04465H17.9999V2.04465ZM22.5999 6.64465C22.5999 4.10415 20.5404 2.04465 17.9999 2.04465V4.04465C19.4358 4.04465 20.5999 5.20871 20.5999 6.64465H22.5999ZM17.9999 23.2447C20.5404 23.2447 22.5999 21.1852 22.5999 18.6447H20.5999C20.5999 20.0806 19.4358 21.2447 17.9999 21.2447V23.2447ZM1.3999 18.6447C1.3999 21.1852 3.45939 23.2447 5.9999 23.2447V21.2447C4.56396 21.2447 3.3999 20.0806 3.3999 18.6447H1.3999ZM3.3999 6.64465C3.3999 5.20871 4.56396 4.04465 5.9999 4.04465V2.04465C3.45939 2.04465 1.3999 4.10415 1.3999 6.64465H3.3999ZM9.11324 14.2901C9.17248 14.2399 9.22117 14.1893 9.23287 14.1774L7.80634 12.7756C7.80174 12.7803 7.79945 12.7826 7.79749 12.7846C7.79576 12.7864 7.79568 12.7864 7.79664 12.7855C7.79833 12.7838 7.8069 12.7755 7.82036 12.7641L9.11324 14.2901ZM6.94434 16.1278L9.11325 14.2901L7.82034 12.7641L5.65144 14.6019L6.94434 16.1278ZM6.99989 16.0611C6.97954 16.0904 6.96167 16.11 6.95195 16.12C6.94257 16.1297 6.93829 16.1329 6.94435 16.1278L5.65143 14.6019C5.57867 14.6635 5.46267 14.7687 5.35827 14.9187L6.99989 16.0611ZM6.9999 16.0611L6.99989 16.0611L5.35827 14.9187C5.12575 15.2528 4.9999 15.6513 4.9999 16.0611H6.9999ZM6.9999 18.1447V16.0611H4.9999V18.1447H6.9999ZM6.4999 17.6447C6.77604 17.6447 6.9999 17.8685 6.9999 18.1447H4.9999C4.9999 18.9731 5.67148 19.6447 6.4999 19.6447V17.6447ZM17.4999 17.6447H6.4999V19.6447H17.4999V17.6447ZM16.9999 18.1447C16.9999 17.8685 17.2238 17.6447 17.4999 17.6447V19.6447C18.3283 19.6447 18.9999 18.9731 18.9999 18.1447H16.9999ZM16.9999 14.3253V18.1447H18.9999V14.3253H16.9999ZM16.9999 14.3253V14.3253H18.9999C18.9999 13.7807 18.7778 13.2596 18.385 12.8825L16.9999 14.3253ZM15.1488 12.5482L16.9999 14.3253L18.385 12.8825L16.5339 11.1054L15.1488 12.5482ZM15.8362 12.553C15.6421 12.7342 15.3403 12.7321 15.1488 12.5482L16.5339 11.1054C15.9593 10.5539 15.0538 10.5475 14.4716 11.0909L15.8362 12.553ZM12.41 15.7732L15.8388 12.5507L14.469 11.0933L11.0403 14.3158L12.41 15.7732ZM10.3126 15.7288C10.8772 16.3054 11.8073 16.3357 12.4075 15.7755L11.0429 14.3134C11.2432 14.1264 11.553 14.1369 11.7417 14.3296L10.3126 15.7288ZM10.3022 15.7181L10.3112 15.7274L11.7431 14.3311L11.7341 14.3219L10.3022 15.7181ZM10.3144 15.7283C10.302 15.7175 10.294 15.7097 10.2925 15.7082C10.2916 15.7073 10.2917 15.7074 10.2933 15.709C10.2951 15.7109 10.2972 15.713 10.3015 15.7174L11.7348 14.3226C11.724 14.3114 11.6787 14.264 11.6239 14.2166L10.3144 15.7283ZM8.64414 14.2815L10.3145 15.7283L11.6239 14.2166L9.95356 12.7698L8.64414 14.2815ZM8.53277 14.1751C8.54369 14.1863 8.58912 14.2339 8.64414 14.2815L9.95356 12.7698C9.96605 12.7806 9.97402 12.7884 9.97559 12.79C9.97649 12.7908 9.97642 12.7908 9.97479 12.7891C9.97297 12.7873 9.97084 12.7851 9.96654 12.7807L8.53277 14.1751ZM8.52464 14.1667L8.53344 14.1758L9.96587 12.78L9.95706 12.771L8.52464 14.1667ZM9.24016 14.17C9.04295 14.3694 8.72238 14.3689 8.52599 14.1681L9.95571 12.7696C9.3701 12.1709 8.40613 12.169 7.81803 12.7638L9.24016 14.17ZM9.23209 14.1782L9.24158 14.1686L7.81661 12.7652L7.80712 12.7748L9.23209 14.1782ZM16.3194 8.24446H16.6626V6.24446H16.3194V8.24446ZM15.6626 7.24446V7.53508H17.6626V7.24446H15.6626ZM16.6626 6.53508H16.3194V8.53508H16.6626V6.53508ZM17.3194 7.53508V7.24446H15.3194V7.53508H17.3194Z" fill="#B4E0A0"/>
</g>
<defs>
<clipPath id="clip0_2_1112">
<rect width="24" height="24" fill="white"/>
</clipPath>
</defs>
</svg>
