<svg width="22" height="21" viewBox="0 0 22 21" fill="none" xmlns="http://www.w3.org/2000/svg">
<path d="M1 0C0.447715 0 0 0.447715 0 1C0 1.55228 0.447715 2 1 2V0ZM3.29254 1L4.25776 0.738585C4.13971 0.302682 3.74414 0 3.29254 0V1ZM7.01791 14.7552L6.05268 15.0166C6.18295 15.4976 6.64747 15.8093 7.14194 15.7475L7.01791 14.7552ZM18.4806 13.3224L18.6046 14.3147C19.0293 14.2616 19.3731 13.9441 19.4599 13.525L18.4806 13.3224ZM20.2 5.01194L21.1793 5.21455C21.2402 4.92003 21.1653 4.61373 20.9754 4.38052C20.7855 4.1473 20.5007 4.01194 20.2 4.01194V5.01194ZM4.3791 5.01194L3.41388 5.27336V5.27336L4.3791 5.01194ZM1 2H3.29254V0H1V2ZM7.14194 15.7475L18.6046 14.3147L18.3566 12.3301L6.89387 13.7629L7.14194 15.7475ZM19.4599 13.525L21.1793 5.21455L19.2207 4.80934L17.5013 13.1198L19.4599 13.525ZM2.32731 1.26142L3.41388 5.27336L5.34433 4.75053L4.25776 0.738585L2.32731 1.26142ZM3.41388 5.27336L6.05268 15.0166L7.98314 14.4938L5.34433 4.75053L3.41388 5.27336ZM20.2 4.01194H4.3791V6.01194H20.2V4.01194ZM9.6 18.5073C9.6 18.7834 9.37614 19.0073 9.1 19.0073V21.0073C10.4807 21.0073 11.6 19.888 11.6 18.5073H9.6ZM9.1 19.0073C8.82386 19.0073 8.6 18.7834 8.6 18.5073H6.6C6.6 19.888 7.71929 21.0073 9.1 21.0073V19.0073ZM8.6 18.5073C8.6 18.2311 8.82386 18.0073 9.1 18.0073V16.0073C7.71929 16.0073 6.6 17.1266 6.6 18.5073H8.6ZM9.1 18.0073C9.37614 18.0073 9.6 18.2311 9.6 18.5073H11.6C11.6 17.1266 10.4807 16.0073 9.1 16.0073V18.0073ZM17.6 18.5073C17.6 18.7834 17.3761 19.0073 17.1 19.0073V21.0073C18.4807 21.0073 19.6 19.888 19.6 18.5073H17.6ZM17.1 19.0073C16.8239 19.0073 16.6 18.7834 16.6 18.5073H14.6C14.6 19.888 15.7193 21.0073 17.1 21.0073V19.0073ZM16.6 18.5073C16.6 18.2311 16.8239 18.0073 17.1 18.0073V16.0073C15.7193 16.0073 14.6 17.1266 14.6 18.5073H16.6ZM17.1 18.0073C17.3761 18.0073 17.6 18.2311 17.6 18.5073H19.6C19.6 17.1266 18.4807 16.0073 17.1 16.0073V18.0073Z" fill="#B4E0A0"/>
</svg>
