<svg width="20" height="20" viewBox="0 0 20 20" fill="none" xmlns="http://www.w3.org/2000/svg">
<g clip-path="url(#clip0_36_847)">
<path d="M14.6776 12.9301C15.888 11.2785 16.4301 9.23074 16.1955 7.19656C15.9609 5.16239 14.9669 3.2918 13.4123 1.95904C11.8578 0.626277 9.85733 -0.0703699 7.81119 0.00847151C5.76505 0.087313 3.82413 0.935828 2.37673 2.38426C0.929335 3.83269 0.0822089 5.77422 0.0048316 7.82042C-0.0725457 9.86661 0.625532 11.8666 1.95941 13.4202C3.29328 14.9738 5.16458 15.9665 7.19892 16.1996C9.23326 16.4328 11.2806 15.8892 12.9314 14.6776H12.9301C12.9676 14.7276 13.0076 14.7751 13.0526 14.8214L17.8651 19.6339C18.0995 19.8684 18.4175 20.0003 18.7491 20.0004C19.0807 20.0005 19.3987 19.8689 19.6333 19.6345C19.8678 19.4001 19.9997 19.0822 19.9998 18.7506C19.9999 18.419 19.8683 18.1009 19.6339 17.8664L14.8214 13.0539C14.7767 13.0086 14.7286 12.9681 14.6776 12.9301ZM15.0001 8.12513C15.0001 9.02796 14.8223 9.92196 14.4768 10.7561C14.1313 11.5902 13.6249 12.3481 12.9865 12.9865C12.3481 13.6249 11.5902 14.1313 10.7561 14.4768C9.92198 14.8223 9.02798 15.0001 8.12514 15.0001C7.22231 15.0001 6.32831 14.8223 5.4942 14.4768C4.66008 14.1313 3.90219 13.6249 3.26379 12.9865C2.62538 12.3481 2.11897 11.5902 1.77347 10.7561C1.42797 9.92196 1.25015 9.02796 1.25015 8.12513C1.25015 6.30176 1.97447 4.55308 3.26379 3.26377C4.5531 1.97445 6.30178 1.25013 8.12514 1.25013C9.94851 1.25013 11.6972 1.97445 12.9865 3.26377C14.2758 4.55308 15.0001 6.30176 15.0001 8.12513Z" fill="#1E1E1E"/>
</g>
<defs>
<clipPath id="clip0_36_847">
<rect width="20" height="20" fill="white"/>
</clipPath>
</defs>
</svg>
