<svg width="352" height="443" viewBox="0 0 352 443" fill="none" xmlns="http://www.w3.org/2000/svg">
<g opacity="0.2" clip-path="url(#clip0_2_1317)">
<path d="M166.544 95.6253C165.448 95.6809 164.404 96.0612 163.577 96.7059C162.75 97.3507 162.186 98.2232 161.976 99.1856C160.265 107.295 159.519 115.543 159.752 123.791C159.77 123.905 159.761 124.021 159.728 124.132C159.695 124.244 159.637 124.348 159.558 124.439C159.479 124.53 159.38 124.605 159.268 124.662C159.156 124.719 159.033 124.755 158.905 124.768C158.789 124.804 158.667 124.818 158.545 124.81C158.423 124.803 158.305 124.773 158.196 124.723C158.088 124.672 157.992 124.603 157.914 124.519C157.837 124.435 157.779 124.337 157.745 124.232C154.229 117.214 151.642 109.852 150.038 102.295C149.916 101.698 149.658 101.131 149.279 100.627C148.9 100.124 148.409 99.696 147.836 99.3704C147.263 99.0447 146.622 98.8283 145.951 98.7346C145.28 98.641 144.595 98.6721 143.937 98.826C131.252 101.8 119.202 106.63 108.277 113.119C108.141 113.2 108.008 113.287 107.882 113.38L105.982 114.767C105.272 115.286 104.737 115.971 104.438 116.746C104.139 117.521 104.087 118.355 104.288 119.154C107.26 130.37 111.891 141.18 118.058 151.3C118.316 151.67 118.408 152.113 118.314 152.541C118.221 152.969 117.949 153.349 117.554 153.605C117.211 153.896 116.755 154.058 116.282 154.056C115.809 154.055 115.355 153.89 115.015 153.597C106.097 147.193 98.1985 139.732 91.5378 131.419C91.1484 130.923 90.6487 130.505 90.0699 130.189C89.491 129.874 88.8456 129.668 88.1737 129.586C87.5018 129.504 86.818 129.546 86.165 129.71C85.512 129.875 84.9037 130.158 84.3782 130.542L81.8773 132.368C74.4778 137.598 68.3039 144.08 63.7092 151.443C59.1146 158.807 56.1895 166.906 55.1015 175.277C54.4998 179.607 55.0007 184.002 56.5665 188.132C58.1324 192.262 60.7228 196.022 64.1443 199.13C67.5657 202.238 71.7296 204.614 76.3249 206.08C80.9202 207.547 85.8281 208.066 90.6817 207.598L101.617 206.664C102.961 206.549 104.318 206.696 105.592 207.095C106.866 207.494 108.028 208.136 108.997 208.975C109.967 209.815 110.721 210.832 111.207 211.958C111.693 213.084 111.9 214.291 111.814 215.495L111.113 225.293C110.744 229.644 111.478 234.011 113.263 238.07C115.048 242.129 117.836 245.773 121.42 248.732C125.003 251.69 129.289 253.886 133.958 255.154C138.627 256.423 143.557 256.732 148.38 256.058C157.697 254.827 166.653 251.965 174.735 247.638C182.818 243.311 189.868 237.603 195.482 230.84L197.49 228.497C197.942 227.962 198.251 227.341 198.393 226.683C239.041 229.867 291.34 230.411 354.631 228.306L354.764 255.363C304.151 250.987 268.424 253.128 243.204 258.273C232.904 254.086 221.626 252.174 210.32 252.699C205.443 252.879 200.673 254.042 196.367 256.1C192.061 258.159 188.33 261.06 185.453 264.587C182.576 268.115 180.628 272.176 179.753 276.469C178.879 280.762 179.101 285.175 180.403 289.378L183.205 298.867C183.549 300.034 183.606 301.254 183.372 302.443C183.138 303.632 182.618 304.761 181.848 305.754C181.078 306.747 180.077 307.578 178.913 308.192C177.749 308.806 176.45 309.187 175.107 309.308L164.177 310.299C159.315 310.687 154.612 312.051 150.421 314.291C146.229 316.531 142.657 319.588 139.972 323.233C137.286 326.879 135.556 331.019 134.912 335.344C134.267 339.669 134.724 344.067 136.249 348.209C139.118 356.223 143.727 363.65 149.812 370.067C155.897 376.483 163.34 381.763 171.714 385.604L174.626 386.99C175.224 387.275 175.882 387.446 176.558 387.494C177.234 387.541 177.914 387.464 178.556 387.266C179.197 387.068 179.786 386.754 180.286 386.343C180.785 385.933 181.185 385.435 181.46 384.881C186.2 375.565 192.338 366.868 199.704 359.031C199.974 358.684 200.384 358.443 200.848 358.359C201.312 358.276 201.794 358.355 202.193 358.581C202.637 358.762 202.986 359.088 203.17 359.491C203.354 359.895 203.359 360.346 203.185 360.753C199.32 371.757 197.11 383.169 196.615 394.69C196.596 395.509 196.829 396.316 197.289 397.023C197.749 397.73 198.419 398.31 199.225 398.699L201.388 399.728C201.531 399.797 201.679 399.859 201.83 399.914C213.949 404.376 226.812 407.013 239.899 407.719C240.577 407.755 241.256 407.666 241.894 407.457C242.532 407.249 243.115 406.924 243.606 406.505C244.098 406.086 244.487 405.58 244.75 405.02C245.013 404.46 245.144 403.858 245.135 403.251C245.081 395.559 246.029 387.886 247.961 380.388C247.972 380.279 248.007 380.173 248.065 380.077C248.123 379.981 248.202 379.896 248.298 379.828C248.393 379.76 248.503 379.71 248.621 379.681C248.739 379.652 248.862 379.645 248.983 379.66C249.111 379.65 249.241 379.664 249.363 379.699C249.485 379.735 249.599 379.792 249.696 379.868C249.793 379.943 249.872 380.036 249.929 380.139C249.985 380.242 250.018 380.355 250.025 380.47C251.58 388.601 254.091 396.563 257.517 404.221C257.932 405.128 258.673 405.886 259.624 406.374C260.574 406.862 261.68 407.053 262.767 406.917C266.584 406.437 270.268 405.814 273.718 405.063L312.274 396.668C315.354 395.996 318.093 394.417 320.047 392.185C322.002 389.953 323.06 387.199 323.049 384.366C323.047 383.878 323.013 383.39 322.948 382.905L318.199 347.706C317.775 344.558 317.134 341.257 316.295 337.896C316.056 336.939 315.468 336.081 314.622 335.457C313.776 334.834 312.722 334.48 311.625 334.452C302.396 334.277 293.17 334.973 284.102 336.529C283.979 336.564 283.85 336.576 283.721 336.565C283.593 336.554 283.469 336.52 283.356 336.466C283.242 336.411 283.143 336.337 283.062 336.247C282.982 336.157 282.922 336.054 282.887 335.943C282.829 335.847 282.793 335.741 282.782 335.633C282.771 335.524 282.785 335.414 282.822 335.31C282.86 335.206 282.921 335.11 283.002 335.028C283.082 334.946 283.181 334.879 283.291 334.832C290.469 330.579 298.177 327.09 306.259 324.435C306.898 324.23 307.484 323.909 307.978 323.492C308.472 323.075 308.865 322.572 309.132 322.014C309.399 321.455 309.534 320.854 309.528 320.247C309.523 319.64 309.378 319.041 309.102 318.487C303.764 307.788 296.481 297.955 287.548 289.387C287.437 289.28 287.319 289.178 287.196 289.081L285.358 287.634C284.67 287.093 283.827 286.734 282.923 286.597C282.019 286.46 281.09 286.552 280.241 286.86C268.341 291.322 257.157 297.179 246.983 304.278C246.617 304.566 246.143 304.72 245.655 304.708C245.168 304.696 244.704 304.518 244.358 304.212C243.98 303.957 243.728 303.582 243.653 303.164C243.578 302.747 243.686 302.32 243.955 301.972C249.58 293.057 256.537 284.868 264.635 277.63C265.12 277.206 265.501 276.696 265.756 276.134C266.01 275.572 266.132 274.969 266.115 274.363C266.097 273.757 265.939 273.161 265.652 272.612C265.365 272.064 264.954 271.574 264.446 271.173L262.024 269.267C260.095 267.709 258.072 266.246 255.966 264.884C279.461 261.343 311.397 260.34 354.809 264.196L355.081 319.37C355.084 320.031 355.254 320.684 355.577 321.279C355.901 321.873 356.371 322.395 356.951 322.806C357.531 323.216 358.207 323.504 358.93 323.649C359.652 323.794 360.402 323.791 361.123 323.642L486.574 297.684C492.908 296.399 498.562 293.215 502.594 288.662C506.627 284.109 508.795 278.46 508.738 272.656L508.439 211.897C508.438 206.093 506.214 200.466 502.137 195.953C498.06 191.439 492.374 188.311 486.027 187.089L360.327 162.369C359.604 162.227 358.854 162.232 358.134 162.384C357.413 162.536 356.739 162.831 356.163 163.247C355.587 163.663 355.123 164.189 354.805 164.787C354.487 165.385 354.324 166.039 354.327 166.701L354.587 219.48C277.152 222.061 224.343 220.393 188.34 216.974C181.969 212.427 176.078 207.366 170.741 201.857C170.403 201.562 170.205 201.162 170.188 200.739C170.172 200.317 170.338 199.905 170.653 199.589C170.927 199.228 171.343 198.973 171.819 198.876C172.294 198.779 172.793 198.847 173.214 199.066C184.726 204.257 196.963 208.053 209.6 210.355C210.5 210.51 211.431 210.437 212.288 210.146C213.146 209.854 213.895 209.355 214.453 208.704L215.944 206.964C216.043 206.847 216.136 206.727 216.223 206.603C223.137 196.639 228.159 185.723 231.086 174.298C231.237 173.706 231.25 173.093 231.124 172.497C230.998 171.9 230.736 171.334 230.354 170.833C229.971 170.331 229.477 169.906 228.903 169.584C228.328 169.261 227.685 169.048 227.013 168.958C218.512 167.763 210.197 165.683 202.238 162.763C202.119 162.736 202.009 162.687 201.912 162.62C201.816 162.554 201.735 162.47 201.676 162.375C201.616 162.28 201.579 162.175 201.566 162.066C201.554 161.958 201.566 161.848 201.602 161.744C201.612 161.629 201.648 161.517 201.708 161.415C201.767 161.313 201.849 161.222 201.948 161.149C202.047 161.075 202.162 161.021 202.286 160.987C202.409 160.954 202.539 160.944 202.667 160.956C211.898 160.902 221.099 159.977 230.115 158.195C231.185 157.977 232.143 157.446 232.838 156.687C233.533 155.927 233.926 154.983 233.954 154.003C233.984 152.917 233.997 151.842 233.992 150.777C233.98 148.467 233.884 146.213 233.705 144.046L230.765 108.688C230.508 105.612 228.998 102.729 226.521 100.584C224.043 98.4385 220.771 97.1804 217.323 97.0477L177.687 95.5348C174.14 95.3993 170.391 95.4298 166.544 95.6253ZM254.028 274.735C246.873 281.696 240.624 289.36 235.401 297.58C233.981 299.693 233.448 302.187 233.896 304.618C234.343 307.048 235.744 309.256 237.846 310.847C239.911 312.488 242.555 313.43 245.319 313.509C248.083 313.589 250.791 312.8 252.973 311.28C261.635 305.253 271.064 300.165 281.064 296.122C287.747 302.663 293.399 309.989 297.863 317.897C290.897 320.533 284.213 323.731 277.896 327.452C275.781 328.689 274.212 330.543 273.454 332.697C272.697 334.852 272.798 337.173 273.741 339.267C274.684 341.36 276.411 343.095 278.626 344.177C280.842 345.26 283.409 345.621 285.892 345.201C293 343.992 300.212 343.335 307.445 343.237C307.84 345.127 308.16 346.979 308.401 348.772L313.149 383.97C313.273 384.889 313.016 385.817 312.426 386.577C311.836 387.338 310.954 387.88 309.947 388.098L271.392 396.494C269.428 396.921 267.375 397.304 265.255 397.638C262.817 391.553 260.972 385.291 259.741 378.921C259.31 376.697 258.029 374.676 256.116 373.203C254.204 371.73 251.779 370.896 249.254 370.843C246.729 370.789 244.26 371.52 242.268 372.91C240.276 374.301 238.885 376.265 238.331 378.468C236.651 385.059 235.648 391.773 235.333 398.526C225.477 397.57 215.813 395.417 206.611 392.125C207.335 382.341 209.355 372.666 212.628 363.305C213.454 360.945 213.329 358.403 212.276 356.119C211.222 353.836 209.306 351.955 206.86 350.804C204.454 349.604 201.648 349.209 198.943 349.688C196.239 350.167 193.812 351.49 192.096 353.42C185.317 360.676 179.48 368.596 174.698 377.027C160.872 370.249 150.484 358.99 145.668 345.567C144.58 342.674 144.243 339.597 144.683 336.568C145.122 333.54 146.327 330.639 148.205 328.087C150.083 325.534 152.586 323.397 155.523 321.835C158.461 320.273 161.757 319.329 165.162 319.074L176.091 318.083C180.069 317.719 183.821 316.253 186.822 313.889C187.137 314.283 187.524 314.628 187.967 314.908L269.69 365.492C270.223 365.827 270.824 366.065 271.459 366.191C272.095 366.317 272.752 366.329 273.394 366.227C274.035 366.125 274.647 365.911 275.196 365.596C275.744 365.282 276.217 364.874 276.589 364.395C276.96 363.917 277.221 363.377 277.358 362.808C277.495 362.239 277.505 361.651 277.386 361.079C277.268 360.507 277.024 359.961 276.668 359.474C276.313 358.987 275.853 358.567 275.315 358.24L193.592 307.656C193.142 307.384 192.645 307.182 192.121 307.056C193.544 303.716 193.763 300.062 192.746 296.607L189.944 287.118C189.016 284.18 188.847 281.092 189.452 278.086C190.056 275.08 191.418 272.236 193.433 269.768C195.448 267.301 198.064 265.275 201.083 263.843C204.102 262.411 207.446 261.612 210.86 261.505C226.619 260.82 242.066 265.554 254.028 274.735ZM483.896 195.704C488.052 196.504 491.774 198.552 494.443 201.507C497.113 204.462 498.569 208.146 498.569 211.946L498.869 272.705C498.906 276.505 497.486 280.203 494.846 283.184C492.206 286.166 488.504 288.25 484.357 289.091L364.921 313.805L364.223 172.169L483.896 195.704ZM177.255 104.347L216.891 105.86C217.925 105.9 218.907 106.277 219.65 106.921C220.393 107.564 220.845 108.429 220.923 109.352L223.862 144.709C224.012 146.511 224.097 148.383 224.118 150.306C217.001 151.471 209.785 152.084 202.55 152.137C200.013 152.147 197.558 152.951 195.613 154.409C193.668 155.868 192.356 157.889 191.903 160.121C191.771 160.747 191.705 161.383 191.708 162.021C191.716 163.949 192.371 165.831 193.589 167.421C194.806 169.012 196.53 170.24 198.538 170.945C205.538 173.493 212.785 175.465 220.188 176.835C217.515 185.372 213.552 193.544 208.409 201.125C197.726 198.903 187.378 195.556 177.58 191.153C175.111 190.043 172.284 189.741 169.59 190.301C166.896 190.86 164.506 192.245 162.834 194.215C161.114 196.143 160.217 198.553 160.302 201.016C160.387 203.478 161.45 205.833 163.299 207.658C170.197 214.811 177.982 221.24 186.504 226.821C176.752 237.915 162.619 245.253 147.011 247.326C143.638 247.817 140.185 247.615 136.914 246.737C133.643 245.859 130.639 244.327 128.13 242.258C125.62 240.188 123.671 237.635 122.429 234.792C121.187 231.948 120.686 228.889 120.963 225.845L121.663 216.047C121.914 212.481 120.911 208.935 118.794 205.906C119.282 205.692 119.726 205.406 120.108 205.061L189.361 141.189C190.272 140.349 190.773 139.219 190.753 138.05C190.733 136.88 190.194 135.766 189.255 134.953C188.316 134.14 187.053 133.693 185.744 133.712C184.436 133.732 183.189 134.214 182.277 135.055L113.024 198.927C112.651 199.279 112.345 199.685 112.121 200.127C108.667 198.331 104.669 197.547 100.688 197.883L89.7533 198.818C86.3581 199.16 82.9209 198.809 79.702 197.789C76.483 196.769 73.5666 195.108 71.1732 192.932C68.7799 190.755 66.9725 188.12 65.8877 185.226C64.8028 182.331 64.469 179.254 64.9115 176.226C66.742 162.219 74.5031 149.365 86.6007 140.304C93.1112 147.741 100.546 154.492 108.763 160.428C110.862 162.022 113.529 162.897 116.285 162.895C119.042 162.894 121.709 162.017 123.811 160.42C125.961 158.865 127.435 156.686 127.976 154.262C128.517 151.838 128.091 149.322 126.772 147.151C121.54 138.538 117.47 129.399 114.648 119.927C122.965 115.093 131.98 111.296 141.442 108.64C143.208 115.21 145.642 121.621 148.712 127.794C149.731 129.859 151.52 131.543 153.774 132.56C156.028 133.577 158.608 133.863 161.074 133.371C163.539 132.878 165.739 131.637 167.297 129.858C168.855 128.08 169.675 125.874 169.618 123.617C169.45 117.154 169.908 110.688 170.988 104.294C173.139 104.252 175.236 104.27 177.255 104.347Z" fill="white" fill-opacity="0.5"/>
</g>
<defs>
<clipPath id="clip0_2_1317">
<rect width="441" height="349.788" fill="white" transform="translate(2.17498 442.72) rotate(-90.2826)"/>
</clipPath>
</defs>
</svg>
