<svg width="366" height="215" viewBox="0 0 366 215" fill="none" xmlns="http://www.w3.org/2000/svg">
<g opacity="0.2" clip-path="url(#clip0_2_1323)">
<path d="M333.775 111.124C332.713 109.714 331.29 108.616 329.657 107.945C328.024 107.274 326.24 107.055 324.493 107.311C291.319 112.17 260.369 126.584 233.007 149.642C232.317 147.236 231.478 144.875 230.495 142.573C228.801 138.382 227.049 134.049 227.879 130.961C228.519 128.578 231.844 125.945 235.061 123.4C239.05 120.243 243.57 116.665 245.614 111.667C247.439 107.204 246.757 102.088 246.096 97.1406C245.704 94.7129 245.492 92.2595 245.463 89.8006C245.492 88.4319 245.145 87.0815 244.459 85.8967C243.773 84.7118 242.775 83.7381 241.574 83.0819C240.364 82.4115 238.992 82.0863 237.61 82.1418C236.227 82.1972 234.887 82.6311 233.734 83.3963C209.309 99.5857 191.376 123.784 180.99 154.25C170.603 123.79 152.687 99.5834 128.266 83.3963C127.113 82.6308 125.772 82.1967 124.389 82.1413C123.006 82.0859 121.635 82.4115 120.424 83.0824C119.223 83.7388 118.225 84.7124 117.54 85.8971C116.854 87.0818 116.507 88.4321 116.536 89.8006C116.506 92.2595 116.294 94.7128 115.902 97.1406C115.242 102.088 114.56 107.203 116.385 111.666C118.428 116.664 122.95 120.243 126.939 123.4C130.155 125.945 133.48 128.577 134.121 130.96C134.951 134.048 133.199 138.382 131.505 142.573C130.521 144.875 129.682 147.236 128.993 149.642C101.63 126.583 70.6803 112.17 37.5058 107.311C35.7595 107.056 33.9768 107.275 32.3443 107.946C30.7118 108.616 29.2894 109.713 28.2262 111.122C27.1629 112.53 26.4978 114.199 26.3005 115.952C26.1032 117.706 26.3809 119.481 27.1045 121.09C28.274 123.839 29.3043 126.646 30.1914 129.498C32.3056 135.895 34.4914 142.51 39.1514 146.688C44.4195 151.411 51.7114 153.023 58.7623 154.583C64.9102 155.943 70.7169 157.228 73.3623 160.279C76.6797 164.104 77.1416 170.922 77.5884 177.516C78.0356 184.118 78.4984 190.945 81.8408 196.041C85.8237 202.111 92.8125 205.804 98.9785 209.062C104.438 211.948 109.594 214.672 111.213 218.108C113.682 223.348 112.103 230.434 110.576 237.288C109.77 240.557 109.182 243.876 108.816 247.222H99.1757C97.9823 247.222 96.8377 247.696 95.9938 248.54C95.1498 249.384 94.6757 250.529 94.6757 251.722V270.187C94.6643 305.871 100.483 341.317 111.902 375.124L117.968 393.101H110.216C109.022 393.101 107.878 393.575 107.034 394.419C106.19 395.263 105.716 396.407 105.716 397.601V425.364C105.716 426.558 106.19 427.703 107.034 428.546C107.878 429.39 109.022 429.864 110.216 429.864H251.784C252.977 429.864 254.122 429.39 254.966 428.546C255.81 427.703 256.284 426.558 256.284 425.364V397.601C256.284 396.407 255.81 395.263 254.966 394.419C254.122 393.575 252.977 393.101 251.784 393.101H244.032L250.098 375.124C261.517 341.317 267.335 305.871 267.324 270.187V251.723C267.324 250.529 266.85 249.385 266.006 248.541C265.162 247.697 264.017 247.223 262.824 247.223H253.184C252.819 243.876 252.231 240.557 251.424 237.288C249.898 230.435 248.318 223.348 250.787 218.108C252.406 214.672 257.563 211.947 263.022 209.063C269.188 205.804 276.176 202.111 280.159 196.041C283.502 190.945 283.965 184.118 284.411 177.516C284.859 170.922 285.319 164.105 288.637 160.279C291.282 157.228 297.089 155.943 303.237 154.584C310.289 153.024 317.58 151.411 322.847 146.688C327.507 142.51 329.694 135.895 331.807 129.498C332.695 126.646 333.725 123.84 334.894 121.091C335.619 119.482 335.898 117.708 335.701 115.954C335.504 114.201 334.839 112.532 333.775 111.124ZM236.527 92.3774C236.649 94.3818 236.916 96.3794 237.176 98.331C237.679 102.109 238.201 106.017 237.284 108.26C236.134 111.073 232.749 113.752 229.475 116.343C225.112 119.796 220.6 123.368 219.187 128.625C217.574 134.625 220.006 140.64 222.15 145.946C223.552 149.415 225.003 153.003 224.702 155.322C224.587 156.102 224.378 156.865 224.079 157.595C212.407 168.639 201.817 180.773 192.454 193.832C188.262 199.637 184.458 205.368 181.004 210.921C180.658 210.366 180.293 209.801 179.941 209.243C180.37 200.48 181.351 191.753 182.876 183.114C190.097 142.599 208.14 112.087 236.527 92.3774ZM137.297 155.322C136.996 153.003 138.447 149.416 139.849 145.947C141.994 140.64 144.426 134.625 142.813 128.625C141.4 123.368 136.887 119.796 132.524 116.343C129.25 113.753 125.865 111.073 124.715 108.26C123.798 106.017 124.319 102.11 124.823 98.331C125.083 96.3794 125.35 94.3818 125.472 92.3764C150.766 109.94 167.842 136.093 176.372 170.254C175.489 173.94 174.703 177.7 174.015 181.535C173.055 186.92 172.351 192.122 171.838 197.069C171.082 195.992 170.327 194.914 169.545 193.832C160.182 180.773 149.592 168.639 137.92 157.594C137.621 156.865 137.412 156.102 137.297 155.322ZM119.354 214.272C116.454 208.119 109.708 204.553 103.183 201.106C97.7233 198.22 92.0773 195.237 89.3659 191.104C87.3176 187.982 86.9533 182.603 86.5676 176.908C86.0461 169.211 85.4553 160.488 80.1618 154.383C75.5671 149.084 68.0124 147.412 60.7062 145.796C54.7883 144.487 48.6691 143.133 45.1594 139.987C42.2848 137.41 40.5617 132.196 38.7375 126.675C37.7559 123.524 36.6121 120.427 35.3107 117.395C35.25 117.257 35.2272 117.105 35.2447 116.956C35.2622 116.806 35.3194 116.664 35.4102 116.544C35.5011 116.424 35.6224 116.33 35.7615 116.273C35.9007 116.215 36.0527 116.196 36.2018 116.217C63.1291 120.16 88.4362 130.587 111.42 147.209C129.905 160.576 146.954 177.964 162.096 198.889C173.023 214.087 182.513 230.268 190.445 247.223H117.866C118.226 244.54 118.725 241.877 119.361 239.246C121.13 231.302 123.136 222.298 119.354 214.272ZM247.284 420.864H114.715V402.101H247.284L247.284 420.864ZM258.324 270.187C258.335 304.892 252.677 339.366 241.571 372.247L234.535 393.101H127.465L120.429 372.247C109.323 339.367 103.664 304.893 103.675 270.187V256.223H258.324L258.324 270.187ZM326.689 117.394C325.388 120.426 324.244 123.524 323.263 126.674C321.439 132.195 319.715 137.41 316.84 139.987C313.33 143.133 307.211 144.487 301.293 145.796C293.987 147.413 286.433 149.084 281.838 154.383C276.544 160.488 275.953 169.211 275.432 176.908C275.047 182.603 274.683 187.982 272.634 191.104C269.922 195.237 264.276 198.22 258.816 201.106C252.292 204.554 245.546 208.119 242.646 214.273C238.864 222.298 240.87 231.302 242.64 239.246C243.276 241.877 243.775 244.539 244.134 247.223H200.398C196.939 239.56 192.264 230.084 186.237 219.653C190.248 212.958 194.787 205.96 199.903 198.889C215.046 177.963 232.094 160.575 250.579 147.208C273.563 130.587 298.87 120.16 325.798 116.216C325.947 116.195 326.099 116.215 326.238 116.272C326.377 116.33 326.498 116.423 326.589 116.543C326.68 116.663 326.737 116.806 326.755 116.955C326.772 117.105 326.75 117.256 326.689 117.394Z" fill="white" fill-opacity="0.5"/>
</g>
<defs>
<clipPath id="clip0_2_1323">
<rect width="395" height="246" fill="white" transform="translate(-29)"/>
</clipPath>
</defs>
</svg>
